<svg width="20" height="20" viewBox="0 0 20 20" fill="none" xmlns="http://www.w3.org/2000/svg">
<path d="M13.2151 7.48417H9.39178V0H13.2151C15.2784 0 16.9568 1.67833 16.9568 3.74167C16.9568 5.805 15.2784 7.48417 13.2151 7.48417ZM10.6176 6.25833H13.2151C14.6026 6.25833 15.7309 5.12917 15.7309 3.7425C15.7309 2.35583 14.6018 1.22667 13.2151 1.22667H10.6176V6.25833ZM10.6176 7.48417H6.79511C4.73178 7.48417 3.05345 5.80583 3.05345 3.7425C3.05345 1.67917 4.73178 0 6.79511 0H10.6184V7.48417H10.6176ZM6.79511 1.22583C5.40761 1.22583 4.27928 2.355 4.27928 3.74167C4.27928 5.12833 5.40761 6.25833 6.79511 6.25833H9.39261V1.22583H6.79511ZM10.6176 13.7417H6.79511C4.73178 13.7417 3.05345 12.0633 3.05345 10C3.05345 7.93667 4.73178 6.25833 6.79511 6.25833H10.6184V13.7417H10.6176ZM6.79511 7.48417C5.40761 7.48417 4.27928 8.61333 4.27928 10C4.27928 11.3867 5.40845 12.5158 6.79511 12.5158H9.39261V7.48417H6.79511ZM6.81511 20C4.74095 20 3.05261 18.3217 3.05261 16.2583C3.05261 14.195 4.73095 12.5167 6.79428 12.5167H10.6176V16.2175C10.6176 18.3033 8.91178 20 6.81511 20ZM6.79511 13.7417C6.12814 13.7425 5.48874 14.0079 5.01712 14.4795C4.5455 14.9511 4.28016 15.5905 4.27928 16.2575C4.27928 17.645 5.41678 18.7733 6.81595 18.7733C8.23678 18.7733 9.39345 17.6267 9.39345 16.2167V13.7417H6.79511ZM13.2151 13.7417H13.1334C11.0701 13.7417 9.39178 12.0633 9.39178 10C9.39178 7.93667 11.0701 6.25833 13.1334 6.25833H13.2151C15.2784 6.25833 16.9568 7.93667 16.9568 10C16.9568 12.0633 15.2784 13.7417 13.2151 13.7417ZM13.1343 7.48417C11.7468 7.48417 10.6184 8.61333 10.6184 10C10.6184 11.3867 11.7476 12.5158 13.1343 12.5158H13.2159C14.6034 12.5158 15.7318 11.3867 15.7318 10C15.7318 8.61333 14.6018 7.48417 13.2151 7.48417H13.1343Z" fill="#31302D"/>
</svg>
