<svg width="100" height="100" viewBox="0 0 100 100" fill="none" xmlns="http://www.w3.org/2000/svg">
<path d="M50 0C22.375 0 0 22.9559 0 51.2695C0 73.9263 14.325 93.1396 34.1875 99.9114C36.6875 100.394 37.6042 98.8091 37.6042 97.4462C37.6042 96.2286 37.5625 93.0029 37.5417 88.7304C23.6333 91.8237 20.7 81.8517 20.7 81.8517C18.425 75.9344 15.1375 74.3536 15.1375 74.3536C10.6083 71.1749 15.4875 71.239 15.4875 71.239C20.5083 71.5978 23.1458 76.5197 23.1458 76.5197C27.6042 84.3597 34.85 82.0953 37.7083 80.7836C38.1583 77.4682 39.4458 75.2081 40.875 73.9263C29.7708 72.6446 18.1 68.2354 18.1 48.5907C18.1 42.9937 20.0375 38.4222 23.2458 34.8333C22.6833 33.5388 20.9958 28.3264 23.6833 21.264C23.6833 21.264 27.8708 19.8883 37.4333 26.5191C41.4333 25.3784 45.6833 24.8144 49.9333 24.7888C54.1833 24.8144 58.4333 25.3784 62.4333 26.5191C71.9333 19.8883 76.1208 21.264 76.1208 21.264C78.8083 28.3264 77.1208 33.5388 76.6208 34.8333C79.8083 38.4222 81.7458 42.9937 81.7458 48.5907C81.7458 68.2867 70.0583 72.6232 58.9333 73.8836C60.6833 75.4217 62.3083 78.5662 62.3083 83.3685C62.3083 90.23 62.2458 95.7415 62.2458 97.4078C62.2458 98.7536 63.1208 100.356 65.6833 99.8431C85.6875 93.1182 100 73.8922 100 51.2695C100 22.9559 77.6125 0 50 0Z" fill="#F9EEE8"/>
</svg>
