<svg width="16" height="16" viewBox="0 0 16 16" fill="none" xmlns="http://www.w3.org/2000/svg">
<g clip-path="url(#clip0_3_147)">
<path d="M8.00513 10C9.1097 10 10.0051 9.10457 10.0051 8C10.0051 6.89543 9.1097 6 8.00513 6C6.90056 6 6.00513 6.89543 6.00513 8C6.00513 9.10457 6.90056 10 8.00513 10Z" fill="#F9EEE8"/>
<path fill-rule="evenodd" clip-rule="evenodd" d="M0.887401 7.63113C1.8789 4.65047 4.6904 2.5 8.00547 2.5C11.319 2.5 14.1294 4.64848 15.1222 7.62697C15.2024 7.86768 15.2025 8.12812 15.1224 8.36887C14.1309 11.3495 11.3194 13.5 8.0043 13.5C4.69078 13.5 1.88035 11.3515 0.887619 8.37303C0.807392 8.13233 0.807315 7.87188 0.887401 7.63113ZM11.5051 8C11.5051 9.933 9.93812 11.5 8.00513 11.5C6.07213 11.5 4.50513 9.933 4.50513 8C4.50513 6.067 6.07213 4.5 8.00513 4.5C9.93812 4.5 11.5051 6.067 11.5051 8Z" fill="#F9EEE8"/>
</g>
<defs>
<clipPath id="clip0_3_147">
<rect width="16" height="16" fill="white" transform="translate(0.00512695)"/>
</clipPath>
</defs>
</svg>
