<svg width="20" height="20" viewBox="0 0 20 20" fill="none" xmlns="http://www.w3.org/2000/svg">
<path d="M16.0628 8.614C15.7861 8.614 15.5607 8.83942 15.5607 9.11658V17.3102H14.1124L11.3328 11.5272C11.7295 11.0783 11.8993 10.4556 11.7697 9.85983C11.7101 9.56542 11.5817 9.28929 11.3949 9.05398C11.2082 8.81866 10.9685 8.63084 10.6953 8.50583V7.82883C10.7054 7.58958 10.5765 7.34658 10.3584 7.21158C10.2425 7.14283 10.1181 7.10875 9.99158 7.10875C9.86498 7.10875 9.7407 7.14277 9.63175 7.20725C9.40667 7.3465 9.27775 7.5895 9.28817 7.84575L9.28792 8.44658C8.44217 8.75225 7.903 9.626 8.049 10.5463C8.10809 10.9245 8.27992 11.276 8.542 11.5549L5.86733 17.3102H3.41575C2.50333 17.3044 1.766 16.5646 1.76308 15.6522V4.18C1.7585 5.09867 2.49942 5.84717 3.418 5.85183C3.45486 5.85201 3.49171 5.85098 3.5285 5.84875H15.8162C15.8162 5.84875 17.9282 5.66633 18.2012 7.13142C17.9936 7.15533 17.8304 7.32483 17.8304 7.53883C17.8304 8.13175 17.3478 8.61392 16.7447 8.61392L16.0628 8.614ZM14.3567 18.7805C14.5523 19.1836 14.3842 19.6688 13.9812 19.8644C13.8732 19.9168 13.759 19.939 13.6463 19.9417C13.5561 19.9439 13.4662 19.9311 13.3802 19.9037C13.3602 19.8972 13.3418 19.8863 13.3223 19.8783C13.2544 19.8504 13.1905 19.8134 13.1326 19.7682C13.112 19.7523 13.0913 19.7366 13.0722 19.7184C13.0035 19.6532 12.9411 19.5791 12.8972 19.4887L11.8511 17.3101L10.5523 14.6057C10.5004 14.495 10.418 14.4014 10.3147 14.3358C10.2115 14.2703 10.0917 14.2355 9.96942 14.2355H9.96742C9.84429 14.236 9.72376 14.271 9.61945 14.3364C9.51514 14.4018 9.43122 14.4951 9.37717 14.6057L8.11808 17.3101L7.09133 19.5154C7.0336 19.648 6.94144 19.7626 6.82443 19.8476C6.70743 19.9325 6.56983 19.9845 6.42592 19.9983C6.37375 20.0027 6.32275 19.9963 6.27175 19.9911C6.24308 19.9881 6.21425 19.9867 6.18633 19.9807C6.14558 19.9722 6.10683 19.9576 6.068 19.9431C6.04292 19.9337 6.01692 19.9267 5.99292 19.9148C5.95158 19.8945 5.91392 19.8678 5.8765 19.8407C5.85842 19.8278 5.83842 19.8178 5.82133 19.8032C5.76791 19.7582 5.72044 19.7066 5.68008 19.6496C5.59834 19.5303 5.54979 19.3913 5.53943 19.2471C5.52906 19.1028 5.55724 18.9584 5.62108 18.8286L6.32683 17.31L9.04983 11.4505C8.73374 11.2171 8.52207 10.8688 8.4605 10.4807C8.33092 9.66417 8.88792 8.89717 9.7045 8.7675V7.82883C9.70238 7.77658 9.71417 7.7247 9.73869 7.6785C9.7632 7.63231 9.79954 7.59345 9.844 7.56592C9.88865 7.53941 9.93962 7.52542 9.99154 7.52542C10.0435 7.52542 10.0944 7.53941 10.1391 7.56592C10.1836 7.59344 10.2199 7.63229 10.2444 7.67849C10.2689 7.72469 10.2807 7.77658 10.2786 7.82883V8.79467L10.2893 8.8C10.5568 8.87366 10.7986 9.01994 10.9881 9.22263C11.1775 9.42532 11.3071 9.6765 11.3625 9.94833C11.4219 10.2215 11.403 10.5058 11.3081 10.7687C11.2132 11.0316 11.0461 11.2624 10.8259 11.4347L13.65 17.3102L14.3567 18.7805ZM10.8252 10.255C10.8287 9.74825 10.4207 9.33467 9.91392 9.33125C9.66895 9.33132 9.43383 9.42766 9.25925 9.5995C9.08843 9.77008 8.99172 10.0011 8.99008 10.2425C8.98658 10.7493 9.39458 11.1628 9.90133 11.1662H9.90775C10.4116 11.1662 10.8217 10.7596 10.8252 10.255ZM9.96933 14.6523C9.87608 14.6528 9.79258 14.705 9.75508 14.7817L8.57783 17.3102H11.3889L10.1752 14.7829C10.1568 14.7439 10.1276 14.7109 10.0912 14.6878C10.0547 14.6647 10.0125 14.6524 9.96933 14.6523ZM16.7553 9.03075L16.7446 9.03067H16.0632C16.0519 9.03067 16.0407 9.03289 16.0303 9.0372C16.0199 9.04151 16.0104 9.04784 16.0025 9.05581C15.9945 9.06378 15.9882 9.07324 15.9839 9.08365C15.9796 9.09407 15.9773 9.10523 15.9773 9.1165V19.8751C15.9773 19.897 15.9856 19.918 16.0006 19.934C16.0155 19.9499 16.036 19.9596 16.0578 19.9609H16.7607C17.5825 19.958 18.2471 19.2909 18.2471 18.4692V7.539C18.2471 8.36292 17.5792 9.03075 16.7553 9.03075ZM2.17992 4.18008V4.19592C2.18317 4.87592 2.73983 5.43175 3.41942 5.435C3.45577 5.43386 3.49213 5.43291 3.5285 5.43217H4.469C4.63333 4.33633 5.10292 3.328 5.834 2.52725H3.42117C2.649 2.52983 2.00692 3.06067 1.82192 3.77517C2.02333 3.80475 2.17992 3.971 2.17992 4.18008ZM7.46167 1.76533L6.59775 0.273667C6.58175 0.245933 6.57332 0.214477 6.57332 0.182458C6.57332 0.150439 6.58175 0.118984 6.59775 0.09125C6.61465 0.0648328 6.63757 0.0427925 6.66463 0.0269325C6.69168 0.0110725 6.72211 0.0018433 6.75342 0C6.78502 0.000420465 6.81598 0.00904367 6.84325 0.025025C6.87053 0.0410063 6.89318 0.0637977 6.909 0.0911667L7.78367 1.60433C8.48054 1.29134 9.23581 1.12952 9.99975 1.12952C10.7637 1.12952 11.519 1.29134 12.2158 1.60433L13.0851 0.0911667C13.1126 0.0572673 13.1513 0.0343368 13.1942 0.026535C13.2371 0.0187332 13.2814 0.0265769 13.3191 0.0486432C13.3567 0.0707095 13.3852 0.105537 13.3994 0.146807C13.4135 0.188076 13.4124 0.233055 13.3962 0.273583L12.5377 1.76525C13.927 2.52567 14.8689 3.88517 15.119 5.43342L4.88067 5.43225C5.131 3.88458 6.07275 2.52558 7.46167 1.76533ZM11.9428 3.94883C11.9442 4.00519 11.9566 4.06073 11.9794 4.11229C12.0021 4.16385 12.0349 4.21042 12.0757 4.24933C12.1164 4.28824 12.1645 4.31873 12.2171 4.33906C12.2697 4.3594 12.3257 4.36917 12.3821 4.36783C12.4385 4.36784 12.4943 4.35675 12.5464 4.33518C12.5984 4.31361 12.6458 4.28199 12.6856 4.24213C12.7255 4.20227 12.7571 4.15495 12.7787 4.10286C12.8002 4.05078 12.8113 3.99496 12.8113 3.93858C12.8108 3.85302 12.7851 3.76951 12.7373 3.69853C12.6895 3.62754 12.6219 3.57225 12.5428 3.53958C12.4637 3.50692 12.3767 3.49833 12.2928 3.51491C12.2088 3.53148 12.1316 3.57248 12.0709 3.63275C12.0291 3.67389 11.9962 3.72316 11.9741 3.77752C11.9521 3.83189 11.9415 3.89019 11.9428 3.94883ZM7.178 3.94325C7.17861 3.99962 7.19032 4.05532 7.21245 4.10717C7.23459 4.15901 7.26672 4.20599 7.30702 4.24542C7.34731 4.28484 7.39497 4.31595 7.44729 4.33695C7.4996 4.35796 7.55554 4.36845 7.61192 4.36783C7.66855 4.36874 7.7248 4.35829 7.77733 4.33709C7.82986 4.31589 7.87761 4.28438 7.91775 4.24442C7.96456 4.20591 8.0028 4.15803 8.03001 4.10386C8.05722 4.04969 8.07279 3.99043 8.07573 3.92989C8.07867 3.86934 8.06891 3.80885 8.04708 3.7523C8.02526 3.69575 7.99184 3.64439 7.94898 3.60153C7.90612 3.55866 7.85476 3.52524 7.79822 3.5034C7.74167 3.48156 7.68118 3.47179 7.62063 3.47473C7.56009 3.47766 7.50082 3.49323 7.44665 3.52043C7.39248 3.54763 7.3446 3.58586 7.30608 3.63267C7.26494 3.67316 7.23239 3.72154 7.21039 3.7749C7.18838 3.82827 7.17736 3.88553 7.178 3.94325Z" fill="#31302D"/>
</svg>
