<svg width="67" height="67" viewBox="0 0 67 67" fill="none" xmlns="http://www.w3.org/2000/svg">
<path d="M33.8095 66.3651C29.2757 66.3651 24.9906 65.4937 20.9544 63.7509C16.9181 62.0081 13.3939 59.6306 10.3816 56.6184C7.36936 53.6061 4.99185 50.0819 3.24908 46.0456C1.5063 42.0094 0.634918 37.7243 0.634918 33.1905C0.634918 28.6013 1.53395 24.2886 3.33201 20.2524C5.13008 16.2161 7.56288 12.7052 10.6304 9.71944C13.698 6.73373 17.2775 4.37059 21.369 2.63003C25.4606 0.889467 29.8286 0.0180808 34.473 0.0158691C38.8963 0.0158691 43.0708 0.776673 46.9964 2.29828C50.9221 3.81989 54.3645 5.92095 57.3237 8.60146C60.2829 11.282 62.6327 14.4612 64.3733 18.1392C66.1138 21.8171 66.9841 25.7837 66.9841 30.0389C66.9841 36.3974 65.0489 41.2773 61.1786 44.6788C57.3082 48.0803 52.6085 49.78 47.0794 49.7778H40.9421C40.4444 49.7778 40.0994 49.916 39.907 50.1925C39.7146 50.4689 39.6173 50.773 39.6151 51.1048C39.6151 51.7682 40.0298 52.7226 40.8591 53.9677C41.6885 55.2129 42.1032 56.6361 42.1032 58.2373C42.1032 61.0018 41.3435 63.0476 39.8241 64.3746C38.3047 65.7016 36.2998 66.3651 33.8095 66.3651ZM15.5635 36.5079C17.0011 36.5079 18.1898 36.038 19.1298 35.098C20.0697 34.1581 20.5397 32.9693 20.5397 31.5317C20.5397 30.0942 20.0697 28.9054 19.1298 27.9655C18.1898 27.0255 17.0011 26.5556 15.5635 26.5556C14.1259 26.5556 12.9372 27.0255 11.9972 27.9655C11.0573 28.9054 10.5873 30.0942 10.5873 31.5317C10.5873 32.9693 11.0573 34.1581 11.9972 35.098C12.9372 36.038 14.1259 36.5079 15.5635 36.5079ZM25.5159 23.2381C26.9534 23.2381 28.1422 22.7681 29.0821 21.8282C30.0221 20.8882 30.4921 19.6995 30.4921 18.2619C30.4921 16.8243 30.0221 15.6356 29.0821 14.6956C28.1422 13.7557 26.9534 13.2857 25.5159 13.2857C24.0783 13.2857 22.8895 13.7557 21.9496 14.6956C21.0097 15.6356 20.5397 16.8243 20.5397 18.2619C20.5397 19.6995 21.0097 20.8882 21.9496 21.8282C22.8895 22.7681 24.0783 23.2381 25.5159 23.2381ZM42.1032 23.2381C43.5407 23.2381 44.7295 22.7681 45.6694 21.8282C46.6094 20.8882 47.0794 19.6995 47.0794 18.2619C47.0794 16.8243 46.6094 15.6356 45.6694 14.6956C44.7295 13.7557 43.5407 13.2857 42.1032 13.2857C40.6656 13.2857 39.4768 13.7557 38.5369 14.6956C37.597 15.6356 37.127 16.8243 37.127 18.2619C37.127 19.6995 37.597 20.8882 38.5369 21.8282C39.4768 22.7681 40.6656 23.2381 42.1032 23.2381ZM52.0556 36.5079C53.4931 36.5079 54.6819 36.038 55.6218 35.098C56.5618 34.1581 57.0317 32.9693 57.0317 31.5317C57.0317 30.0942 56.5618 28.9054 55.6218 27.9655C54.6819 27.0255 53.4931 26.5556 52.0556 26.5556C50.618 26.5556 49.4292 27.0255 48.4893 27.9655C47.5493 28.9054 47.0794 30.0942 47.0794 31.5317C47.0794 32.9693 47.5493 34.1581 48.4893 35.098C49.4292 36.038 50.618 36.5079 52.0556 36.5079Z" fill="#C6BF8B"/>
</svg>
