<svg width="71" height="59" viewBox="0 0 71 59" fill="none" xmlns="http://www.w3.org/2000/svg">
<path d="M10.5873 33.6766V42.9987C10.5873 45.4204 11.9143 47.6763 14.0375 48.8374L30.6248 57.8941C32.6152 58.9888 35.0038 58.9888 36.9943 57.8941L53.5816 48.8374C55.7048 47.6763 57.0317 45.4204 57.0317 42.9987V33.6766L36.9943 44.6242C35.0038 45.719 32.6152 45.719 30.6248 44.6242L10.5873 33.6766ZM30.6248 1.62993L2.65857 16.8902C0.369526 18.1509 0.369526 21.4683 2.65857 22.729L30.6248 37.9893C32.6152 39.0841 35.0038 39.0841 36.9943 37.9893L63.6667 23.4256V43.0318C63.6667 44.8564 65.1595 46.3493 66.9841 46.3493C68.8087 46.3493 70.3016 44.8564 70.3016 43.0318V21.7669C70.3016 20.5395 69.6381 19.4447 68.5765 18.8476L36.9943 1.62993C36.0141 1.10718 34.9204 0.83374 33.8095 0.83374C32.6987 0.83374 31.6049 1.10718 30.6248 1.62993Z" fill="#C6BF8B"/>
</svg>
