<svg width="81" height="73" viewBox="0 0 81 73" fill="none" xmlns="http://www.w3.org/2000/svg">
<path d="M43.0626 22.8788L46.2757 3.58677C46.5399 2.00113 47.9169 0.832764 49.5304 0.832764C50.5736 0.832764 51.5472 1.31958 52.1731 2.15413L54.5238 5.28369H61.7704C63.5369 5.28369 65.2338 5.99306 66.4856 7.24488L68.9893 9.73462H76.7784C78.6283 9.73462 80.1166 11.2229 80.1166 13.0728V16.411C80.1166 22.5588 75.1371 27.5383 68.9893 27.5383H59.3502L58.6409 31.7806L43.0626 22.8788ZM57.862 36.4541V67.5966C57.862 70.0586 55.873 72.0476 53.411 72.0476H48.9601C46.4982 72.0476 44.5092 70.0586 44.5092 67.5966V51.5733C41.171 53.2841 37.3877 54.2439 33.3819 54.2439C29.376 54.2439 25.5928 53.2841 22.2546 51.5733V67.5966C22.2546 70.0586 20.2656 72.0476 17.8036 72.0476H13.3527C10.8908 72.0476 8.90178 70.0586 8.90178 67.5966V35.5778C4.89595 34.0617 1.75248 30.6679 0.66757 26.3282L0.139023 24.1723C-0.45907 21.7938 0.98748 19.3737 3.37985 18.7756C5.77223 18.1775 8.17851 19.624 8.7766 22.0164L9.31906 24.1723C9.80588 26.1474 11.5862 27.5383 13.6309 27.5383H42.2559L57.862 36.4541ZM64.5384 11.9601C64.5384 11.3698 64.3039 10.8038 63.8865 10.3864C63.4692 9.96908 62.9031 9.73462 62.3129 9.73462C61.7227 9.73462 61.1566 9.96908 60.7393 10.3864C60.3219 10.8038 60.0874 11.3698 60.0874 11.9601C60.0874 12.5503 60.3219 13.1164 60.7393 13.5337C61.1566 13.9511 61.7227 14.1855 62.3129 14.1855C62.9031 14.1855 63.4692 13.9511 63.8865 13.5337C64.3039 13.1164 64.5384 12.5503 64.5384 11.9601Z" fill="#C6BF8B"/>
</svg>
