<svg width="100" height="100" viewBox="0 0 100 100" fill="none" xmlns="http://www.w3.org/2000/svg">
<path d="M29.2921 0.350069C23.9721 0.600902 20.3392 1.45007 17.1629 2.69756C13.8762 3.97881 11.09 5.69755 8.31788 8.47963C5.5462 11.2617 3.83869 14.0496 2.56702 17.3421C1.33618 20.5246 0.502009 24.1608 0.267008 29.4837C0.0320068 34.8066 -0.0200768 36.5179 0.00617332 50.0962C0.0320068 63.6736 0.0920071 65.3757 0.349925 70.7099C0.604093 76.0286 1.44993 79.6607 2.69785 82.8377C3.98119 86.1248 5.69787 88.9098 8.48122 91.6827C11.2641 94.4556 14.05 96.159 17.35 97.4327C20.53 98.6619 24.1671 99.4998 29.4892 99.7327C34.8113 99.966 36.5243 100.02 50.0985 99.9939C63.6727 99.9681 65.3819 99.9077 70.7144 99.6548C76.0478 99.4019 79.6603 98.5498 82.8387 97.3077C86.1258 96.0219 88.9129 94.3077 91.6837 91.524C94.4545 88.7398 96.1608 85.9498 97.4316 82.6557C98.6637 79.4757 99.5008 75.839 99.7317 70.5207C99.965 65.1836 100.02 63.4799 99.9942 49.9041C99.9679 36.3279 99.9067 34.6258 99.6537 29.2937C99.4008 23.9617 98.5537 20.3408 97.3066 17.1617C96.0216 13.8746 94.3066 11.0917 91.525 8.31671C88.7429 5.54172 85.9503 3.83673 82.6578 2.56881C79.4753 1.33757 75.8407 0.498818 70.5186 0.268819C65.1965 0.0388198 63.4836 -0.0207633 49.9043 0.00590327C36.3251 0.0317365 34.6251 0.0900697 29.2921 0.350069ZM29.8763 90.7377C25.0013 90.5256 22.3542 89.7156 20.59 89.0377C18.2542 88.1377 16.59 87.0498 14.8321 85.3086C13.0737 83.5677 11.9941 81.8978 11.0821 79.5669C10.3971 77.8028 9.57205 75.1586 9.34414 70.2836C9.09622 65.0149 9.04413 63.4328 9.01497 50.0837C8.9858 36.735 9.03705 35.1546 9.26789 29.8837C9.47622 25.0129 10.2912 22.3629 10.9679 20.5996C11.8679 18.2609 12.9521 16.5996 14.6971 14.8429C16.4421 13.0859 18.1071 12.0038 20.44 11.0917C22.2025 10.4038 24.8463 9.58587 29.7192 9.35379C34.9922 9.10379 36.5722 9.05379 49.9193 9.02463C63.2665 8.99546 64.8506 9.04546 70.1257 9.27796C74.9965 9.48963 77.6478 10.2967 79.4091 10.978C81.7457 11.878 83.4091 12.9588 85.1657 14.7071C86.9228 16.4546 88.0058 18.1138 88.9179 20.4517C89.6066 22.2088 90.4249 24.8517 90.6549 29.7279C90.9058 35.0008 90.9629 36.5821 90.9866 49.9278C91.0108 63.2736 90.9637 64.8586 90.7324 70.1278C90.5199 75.0028 89.7116 77.6507 89.0324 79.4169C88.1324 81.7519 87.0478 83.4169 85.3016 85.1727C83.5557 86.929 81.8928 88.0107 79.5586 88.9227C77.7986 89.6098 75.1515 90.4298 70.2828 90.6619C65.0094 90.9098 63.4294 90.9619 50.0773 90.9911C36.7251 91.0202 35.1493 90.9661 29.8763 90.7377ZM70.6378 23.2767C70.6397 24.4635 70.9936 25.623 71.6547 26.6086C72.3157 27.5943 73.2542 28.3618 74.3515 28.814C75.4488 29.2662 76.6555 29.3829 77.8191 29.1492C78.9826 28.9156 80.0508 28.3421 80.8884 27.5013C81.726 26.6606 82.2955 25.5903 82.5248 24.4259C82.7541 23.2614 82.6329 22.0551 82.1765 20.9596C81.7202 19.864 80.9492 18.9284 79.9611 18.2711C78.973 17.6138 77.8121 17.2642 76.6253 17.2667C75.0344 17.27 73.51 17.905 72.3872 19.032C71.2644 20.159 70.6351 21.6858 70.6378 23.2767ZM24.3271 50.0499C24.355 64.2299 35.8713 75.6986 50.0481 75.6719C64.2257 75.6449 75.7024 64.1299 75.6757 49.9499C75.6486 35.77 64.1298 24.2979 49.9506 24.3258C35.7713 24.3538 24.3005 35.8716 24.3271 50.0499ZM33.3334 50.032C33.3269 46.7357 34.298 43.5115 36.124 40.7671C37.9499 38.0227 40.5486 35.8813 43.5916 34.6138C46.6345 33.3464 49.9849 33.0097 53.2192 33.6463C56.4535 34.283 59.4264 35.8644 61.7619 38.1906C64.0974 40.5169 65.6906 43.4834 66.3401 46.7151C66.9897 49.9468 66.6663 53.2985 65.4109 56.3464C64.1555 59.3944 62.0245 62.0016 59.2874 63.8384C56.5502 65.6752 53.3298 66.6591 50.0335 66.6657C47.8447 66.6703 45.6764 66.2437 43.6525 65.4102C41.6286 64.5767 39.7887 63.3527 38.2379 61.8081C36.6871 60.2635 35.4558 58.4285 34.6143 56.4079C33.7728 54.3873 33.3375 52.2208 33.3334 50.032Z" fill="#F9EEE8"/>
</svg>
