<svg width="20" height="20" viewBox="0 0 20 20" fill="none" xmlns="http://www.w3.org/2000/svg">
<g clip-path="url(#clip0_3_114)">
<path d="M0.00509644 0H20.0051V20H0.00509644V0ZM18.3668 15.23C18.2209 14.3175 17.6268 13.5508 15.8643 12.8358C15.2509 12.5483 14.5693 12.3483 14.3668 11.8858C14.2909 11.6108 14.2793 11.4608 14.3284 11.2983C14.4534 10.76 15.0909 10.5983 15.5909 10.7483C15.9159 10.8483 16.2159 11.0983 16.4043 11.4983C17.2659 10.935 17.2659 10.935 17.8668 10.5608C17.6418 10.2108 17.5301 10.06 17.3784 9.91083C16.8534 9.32333 16.1543 9.02333 15.0168 9.04917L14.4293 9.12333C13.8659 9.26083 13.3293 9.56083 13.0043 9.96083C12.0543 11.0367 12.3284 12.9117 13.4784 13.6867C14.6159 14.5367 16.2793 14.7233 16.4918 15.5242C16.6918 16.4992 15.7668 16.8117 14.8534 16.6992C14.1776 16.5492 13.8034 16.2108 13.3909 15.5858L11.8659 16.4617C12.0409 16.8617 12.2409 17.0358 12.5409 17.3858C13.9909 18.8492 17.6159 18.7742 18.2668 16.5492C18.2909 16.4742 18.4668 15.9617 18.3284 15.1742L18.3668 15.23ZM10.8809 9.1925H9.0076C9.0076 10.8075 9.0001 12.4125 9.0001 14.03C9.0001 15.0567 9.0526 15.9992 8.8851 16.2892C8.6101 16.8633 7.90176 16.79 7.5801 16.6892C7.2501 16.5258 7.0826 16.3008 6.88843 15.9767C6.83593 15.8892 6.79676 15.8133 6.7826 15.8133L5.26176 16.7508C5.51593 17.2758 5.88676 17.7275 6.3651 18.015C7.0776 18.44 8.0351 18.5775 9.0376 18.3525C9.6901 18.1642 10.2526 17.7767 10.5468 17.1767C10.9718 16.4017 10.8818 15.4517 10.8776 14.3883C10.8876 12.6767 10.8776 10.9642 10.8776 9.23917L10.8809 9.1925Z" fill="#31302D"/>
</g>
<defs>
<clipPath id="clip0_3_114">
<rect width="20" height="20" fill="white" transform="translate(0.00509644)"/>
</clipPath>
</defs>
</svg>
