<svg width="80" height="80" viewBox="0 0 80 80" fill="none" xmlns="http://www.w3.org/2000/svg">
<path d="M6.63495 40.221C6.63495 21.6731 21.4872 6.63501 39.8096 6.63501C58.1319 6.63501 72.9842 21.6731 72.9842 40.221V57.6144C72.9842 60.3248 72.9842 62.1859 72.5098 63.8181C72.054 65.3898 71.2731 66.8481 70.2175 68.0986C69.1619 69.349 67.8553 70.3637 66.3824 71.0767C64.863 71.8065 63.0517 72.0951 60.4077 72.5165L59.9764 72.5828C59.1759 72.7216 58.3716 72.8378 57.5646 72.9311C56.8712 72.9975 56.1646 73.0207 55.4414 72.8781C54.2657 72.6405 53.1713 72.1034 52.264 71.3188C51.3568 70.5342 50.6675 69.5286 50.2629 68.3995C50.0304 67.7158 49.9007 67.0014 49.878 66.2796C49.8382 65.6029 49.8382 64.7801 49.8382 63.8181V49.9743C49.8382 48.5644 49.8382 47.3502 50.16 46.3085C50.5164 45.1436 51.1721 44.0925 52.0615 43.2601C52.951 42.4277 54.0432 41.8431 55.2291 41.5646C56.2774 41.3224 57.475 41.4186 58.865 41.5314L59.1736 41.5546L59.5385 41.5878C62.1361 41.7935 63.9175 41.9328 65.427 42.5001C66.4908 42.9004 67.4672 43.4389 68.3563 44.1157V40.221C68.3563 24.2607 55.5741 11.3226 39.8096 11.3226C24.045 11.3226 11.2628 24.2607 11.2628 40.221V44.1157C12.1486 43.4422 13.1305 42.8949 14.1921 42.5001C15.7016 41.9361 17.483 41.7935 20.0806 41.5845L20.4455 41.5546L20.7541 41.5314C22.1474 41.4186 23.3417 41.3224 24.39 41.5646C25.5759 41.8431 26.6681 42.4277 27.5576 43.2601C28.447 44.0925 29.1027 45.1436 29.4591 46.3085C29.7842 47.3502 29.7809 48.5644 29.7809 49.9743V63.8148C29.7809 64.7801 29.7809 65.6062 29.7411 66.2796C29.7013 66.9863 29.6084 67.6962 29.3562 68.3962C28.9519 69.5249 28.2631 70.5302 27.3565 71.3148C26.4499 72.0994 25.3561 72.6367 24.181 72.8747C23.4787 72.9973 22.7623 73.0163 22.0545 72.9311C21.3877 72.8648 20.5816 72.7354 19.6427 72.5861L19.2114 72.5198C16.5674 72.0951 14.7528 71.8065 13.2367 71.0734C11.7638 70.3603 10.4572 69.3457 9.40161 68.0952C8.34604 66.8448 7.56507 65.3864 7.10935 63.8148C6.71788 62.4712 6.64822 60.9717 6.63827 58.9679L6.63495 58.321V40.221Z" fill="#C6BF8B"/>
<path fill-rule="evenodd" clip-rule="evenodd" d="M39.8095 19.0754C40.4694 19.0754 41.1022 19.3376 41.5688 19.8042C42.0355 20.2708 42.2976 20.9037 42.2976 21.5635V38.1508C42.2976 38.8107 42.0355 39.4436 41.5688 39.9102C41.1022 40.3768 40.4694 40.6389 39.8095 40.6389C39.1496 40.6389 38.5168 40.3768 38.0501 39.9102C37.5835 39.4436 37.3214 38.8107 37.3214 38.1508V21.5635C37.3214 20.9037 37.5835 20.2708 38.0501 19.8042C38.5168 19.3376 39.1496 19.0754 39.8095 19.0754ZM49.7619 24.0516C50.4218 24.0516 51.0546 24.3138 51.5212 24.7804C51.9878 25.247 52.25 25.8798 52.25 26.5397V33.1746C52.25 33.8345 51.9878 34.4674 51.5212 34.934C51.0546 35.4006 50.4218 35.6627 49.7619 35.6627C49.102 35.6627 48.4691 35.4006 48.0025 34.934C47.5359 34.4674 47.2738 33.8345 47.2738 33.1746V26.5397C47.2738 25.8798 47.5359 25.247 48.0025 24.7804C48.4691 24.3138 49.102 24.0516 49.7619 24.0516ZM29.8571 24.0516C30.517 24.0516 31.1499 24.3138 31.6165 24.7804C32.0831 25.247 32.3452 25.8798 32.3452 26.5397V33.1746C32.3452 33.8345 32.0831 34.4674 31.6165 34.934C31.1499 35.4006 30.517 35.6627 29.8571 35.6627C29.1972 35.6627 28.5644 35.4006 28.0978 34.934C27.6312 34.4674 27.369 33.8345 27.369 33.1746V26.5397C27.369 25.8798 27.6312 25.247 28.0978 24.7804C28.5644 24.3138 29.1972 24.0516 29.8571 24.0516Z" fill="#C6BF8B"/>
</svg>
